[img]http://www.filmofilia.com/wp-content/uploads/2010/09/duedate_11.jpg[/img]


General
Format                           : AVI
Format/Info                      : Audio Video Interleave
File size                        : 3.79 GiB
Duration                         : 1h 37mn
Overall bit rate                 : 5 556 Kbpss


[color=blue]Video[/color]
ID                               : 0
Format                           : MPEG-4 Visual
Format profile                   : Advanced Simple@L5
Format settings, BVOP            : 3
Format settings, QPel            : Yes
Format settings, GMC             : No warppoints
Format settings, Matrix          : Default (H.263)
Codec ID                         : XVID
Codec ID/Hint                    : XviD
Duration                         : 1h 37mn
Bit rate                         : 4 468 Kbps
Width                            : 640 pixels
Height                           : 272 pixels
Display aspect ratio             : 2.35:1
Frame rate                       : 25.000 fps
Color space                      : YUV
Chroma subsampling               : 4:2:0
Bit depth                        : 8 bits
Scan type                        : Progressive
Compression mode                 : Lossy
Bits/(Pixel*Frame)               : 1.027
Stream size                      : 3.05 GiB (80%)
Writing library                  : XviD 1.2.1 (UTC 2008-12-04)

[color=blue]Audio #1[/color]
ID                               : 1
Format                           : AC-3
Format/Info                      : Audio Coding 3
Mode extension                   : CM (complete main)
Codec ID                         : 2000
Duration                         : 1h 31mn
Bit rate mode                    : Constant
Bit rate                         : 384 Kbps
Channel(s)                       : 6 channels
Channel positions                : Front: L C R, Side: L R, LFE
Sampling rate                    : 48.0 KHz
Bit depth                        : 16 bits
Compression mode                 : Lossy
Stream size                      : 251 MiB (6%)

[color=blue]Audio #2[/color]

ID                               : 2
Format                           : AC-3
Format/Info                      : Audio Coding 3
Mode extension                   : CM (complete main)
Codec ID                         : 2000
Duration                         : 1h 31mn
Bit rate mode                    : Constant
Bit rate                         : 384 Kbps
Channel(s)                       : 6 channels
Channel positions                : Front: L C R, Side: L R, LFE
Sampling rate                    : 48.0 KHz
Bit depth                        : 16 bits
Compression mode                 : Lossy
Stream size                      : 251 MiB (6%)

[color=blue]Audio #3[/color]

ID                               : 3
Format                           : AC-3
Format/Info                      : Audio Coding 3
Mode extension                   : CM (complete main)
Codec ID                         : 2000
Duration                         : 1h 31mn
Bit rate mode                    : Constant
Bit rate                         : 384 Kbps
Channel(s)                       : 6 channels
Channel positions                : Front: L C R, Side: L R, LFE
Sampling rate                    : 48.0 KHz
Bit depth                        : 16 bits
Compression mode                 : Lossy
Stream size                      : 251 MiB (6%)






[url=http://www.phyrefile.com/image/view/Aye1lntXvprtmnOq][img]http://thumb.phyrefile.com/s/sh/shahaz/2011/02/26/300/vlcsnap-2011-02-27-03h22m22s83.png[/img][/url] [url=http://www.phyrefile.com/image/view/plPLpa2w96lXDXIR][img]http://thumb.phyrefile.com/s/sh/shahaz/2011/02/26/300/vlcsnap-2011-02-27-03h23m14s167.png[/img][/url]
[url=http://www.phyrefile.com/image/view/R4LnOW16pmVCrUJ3][img]http://thumb.phyrefile.com/s/sh/shahaz/2011/02/26/300/vlcsnap-2011-02-27-03h23m48s253.png[/img][/url] [url=http://www.phyrefile.com/image/view/3gZjAD7W9QwbSS4w][img]http://thumb.phyrefile.com/s/sh/shahaz/2011/02/26/300/vlcsnap-2011-02-27-03h24m06s194.png[/img][/url]
[url=http://www.phyrefile.com/image/view/s5V0m8R1lOPFnqs9][img]http://thumb.phyrefile.com/s/sh/shahaz/2011/02/26/300/vlcsnap-2011-02-27-03h24m26s127.png[/img][/url] [url=http://www.phyrefile.com/image/view/NUjtecn7UIuNN7fG][img]http://thumb.phyrefile.com/s/sh/shahaz/2011/02/26/300/vlcsnap-2011-02-27-03h25m23s80.png[/img][/url]
[url=http://www.phyrefile.com/image/view/wJ0RhczdKOgi1Imc][img]http://thumb.phyrefile.com/s/sh/shahaz/2011/02/26/300/vlcsnap-2011-02-27-03h25m32s9.png[/img][/url] [url=http://www.phyrefile.com/image/view/kwyilwpZT5Iyy8G4][img]http://thumb.phyrefile.com/s/sh/shahaz/2011/02/26/300/vlcsnap-2011-02-27-03h25m49s155.png[/img][/url]
